<svg xmlns="http://www.w3.org/2000/svg" width="59" height="72" viewBox="0 0 59 72">
    <g fill="#FFF" fill-rule="nonzero" transform="translate(0 -1)">
        <path d="M58.34 21.545a2.997 2.997 0 0 0-2.396-1.195h-38.67l-2.475-7.385H3.058a3 3 0 0 0 0 6h7.424l13.5 40.285h25.159a3 3 0 0 0 0-6H28.299l-1.726-5.149h23.12a3.001 3.001 0 0 0 2.884-2.172l6.25-21.75c.26-.906.08-1.88-.487-2.634zm-7.781 9.681h-4.81V26.35h6.211l-1.401 4.876zm-17.617 0V26.35h6.807v4.875h-6.807v.001zm6.807 6v4.875h-6.807v-4.875h6.807zM26.942 26.35v4.875h-6.023l-1.634-4.875h7.657zm-4.013 10.876h4.013v4.875h-2.379l-1.634-4.875zm22.82 4.875v-4.875h3.086l-1.401 4.875h-1.685z"/>
        <circle cx="27.406" cy="67.094" r="5.781"/>
        <circle cx="44.844" cy="67.094" r="5.781"/>
        <path d="M29.335 10.699l7.547 5.492a1.986 1.986 0 0 0 2.818-.494c.646-.936.43-2.232-.48-2.895l-2.373-1.726 9.436-5.09L50.911 18h4.347L49.214 2.309a2.051 2.051 0 0 0-1.177-1.183 1.97 1.97 0 0 0-1.643.109L33.146 8.382l-3.022-2.199a1.986 1.986 0 0 0-2.742.39l-8.481 10.798c-.17.184-.307.397-.405.628h5.106l5.733-7.3z"/>
    </g>
</svg>
